<?xml version="1.0" encoding="UTF-8"?><svg id="a" xmlns="http://www.w3.org/2000/svg" viewBox="0 0 24 24"><rect x="1" y="11" width="3" height="2"/><polygon points="6.76 5.39 4.96 3.6 3.55 5 5.34 6.81 6.76 5.39"/><rect x="11" y="1" width="2" height="3"/><polygon points="3.55 19.09 4.96 20.5 6.76 18.71 5.34 17.29 3.55 19.09"/><polygon points="20.45 5 19.04 3.6 17.24 5.39 18.66 6.81 20.45 5"/><polygon points="17.24 18.71 19.04 20.5 20.45 19.09 18.66 17.29 17.24 18.71"/><rect x="20" y="11" width="3" height="2"/><path d="M12,6c-3.31,0-6,2.69-6,6s2.69,6,6,6,6-2.69,6-6-2.69-6-6-6Zm0,10c-2.21,0-4-1.79-4-4s1.79-4,4-4,4,1.79,4,4-1.79,4-4,4Z"/><rect x="11" y="20" width="2" height="3"/></svg>